_________________________  Visit us at _________________________
  
http://p2pdl.com  ____________________________  http://p2pdl.com


The Yellow Sea 2010 BRRip 720p x264 Korean ESubs - PRiSTiNE [P2PDL]

Genre: Crime | Drama | Thriller
Plot: The story of a cab driver in Yanji City, a region between 
North Korea, China and Russia. His wife goes to Korea to earn money, 
but he doesn't hear from her since in 6 months. He plays mah-jong 
to make some extra cash, but this only makes his life worse; but 
then he meets a hitman who proposes to turn his life around by 
repaying his debt and reuniting with his wife, just for one hit.
Director: Hong-jin Na
Stars: Jung-woo Ha, Yun-seok Kim, Seong-Ha Cho
Rated: Rated R for brutal bloody violence, some strong sexuality, nudity, and language

Info: 
http://www.imdb.com/title/tt1230385/

General
Complete name                  : The Yellow Sea 2010 BRRip 720p x264 Korean ESubs - PRiSTiNE.mp4
Format                         : MPEG-4
File size                      : 786 MiB
Duration                       : 2h 20mn
Overall bit rate mode          : Variable
Overall bit rate               : 781 Kbps

Video
Format                         : AVC
Format/Info                    : Advanced Video Codec
Format profile                 : High 10@L4.1
Bit rate                       : 699 Kbps
Width                          : 1 280 pixels
Height                         : 544 pixels
Display aspect ratio           : 2.35:1
Frame rate mode                : Constant
Frame rate                     : 23.976 fps
Bit depth                      : 10 bits
Stream size                    : 702 MiB (89%)
Writing library                : x264 core 130 r2273 b3065e6

Audio
Format                         : AAC
Format/Info                    : Advanced Audio Codec
Bit rate mode                  : Variable
Bit rate                       : 79.8 Kbps
Channel(s)                     : 2 channels
Channel positions              : Front: L R
Sampling rate                  : 48.0 KHz / 24.0 KHz
Stream size                    : 80.3 MiB (10%)
Language                       : Korean

Subtitle                       : Yes (English)
Source                         : 720p.BluRay.DTS.x264-EbP (Thanks)

Screenshots:
 
http://www.ultraimg.com/images/wZqaI.jpg 
http://www.ultraimg.com/images/qlYoA.jpg 
http://www.ultraimg.com/images/Y0Kq.jpg 
http://www.ultraimg.com/images/1BbmF.jpg 
http://www.ultraimg.com/images/FhaSB.jpg 
http://www.ultraimg.com/images/2D7.jpg 
http://www.ultraimg.com/images/J3u1M.jpg 
http://www.ultraimg.com/images/S0li8.jpg 
http://www.ultraimg.com/images/SsBp.jpg

----------------------------------------------------------------------------------------------------


Encoded using revolutionary 10bit encoding, which enables us to provide you more crispier 
and sharper images at small sizes, just make sure you follow our instructions without a fault.
Recommend to you to use latest version of VLC player. Install K-Lite Codec Pack or shark007 codecs
in case of any kind of problem in playback (For non-VLC Media Player users). Alternatively, install
Core AVC codecs, the fastest decoder that there is coupled with Community Center Codec Pack and play
on Windows Media Player Classic. Check sample to be sure.
Enjoy!

Encoder Notes:Looking For Early Access To Anything You Can Provide DVDScr, R5, DVDR, BluRay, Direct
Audio, Music Releases and Seedboxes. We require dedicated servers, so as to do more 
and fast releases of movies.
If You Got anything to offer please contact us at "prg@hush.com".

Face book Fan Page:   
http://www.fb.me/p2pdl